<svg width="460" height="113" viewBox="0 0 460 113" xmlns="http://www.w3.org/2000/svg">
<path d="M459.279 85.984L373.539 84.179C370.158 84.179 365.784 81.887 365.784 77.579V75.27C365.784 70.962 370.588 68.67 374.059 68.67L459.954 61.777C459.946 60.013 459.946 58.209 459.946 56.323C459.946 53.031 459.962 49.95 459.962 47.032L372.881 40.139C369.735 40.163 365.785 37.863 365.785 33.555V31.246C365.785 26.938 370.589 24.646 374.06 24.646L458.939 22.858C455.338 -0.00800514 439.292 3.91903e-09 369.004 3.91903e-09C345.293 3.91903e-09 324.646 9.42099 313.551 26.247C312.031 28.547 310.69 30.978 309.544 33.555C308.414 36.107 307.504 38.806 306.78 41.619L11.2089 33.889C5.03892 33.889 -6.41369e-05 47.025 -6.41369e-05 53.194V63.355C-6.41369e-05 69.525 5.02293 82.66 11.1929 82.66L307.87 74.905C308.837 77.742 310.081 80.4 311.479 82.944C313.194 86.074 315.218 88.967 317.519 91.633C329.2 105.159 347.879 112.654 368.997 112.654C441.9 112.654 456.442 111.247 459.279 85.984Z"/>
</svg>
